# xmcd CD database file
#
# Track frame offsets:
#	150
#	17264
#	33163
#	50565
#	80286
#	94005
#	109592
#	139258
#	153056
#	170443
#	193304
#	216364
#	231490
#	250595
#	266709
#	288472
#	307279
#
# Disc length: 4237 seconds
#
# Revision: 0
# Processed by: cddbd v1.4PL0 Copyright (c) Steve Scherf et al.
# Submitted via: CDex 1.50
#
DISCID=eb108b11
DTITLE=Querschläger - zwischen schwachz und weiß
DYEAR=2003
DGENRE=Blues
TTITLE0=es kriagts ins nid
TTITLE1=amlachsam
TTITLE2=da tamische franz
TTITLE3=mega giga gala charity
TTITLE4=season lover bua
TTITLE5=statussymbolpoleposition
TTITLE6=schwammerl brocking talking blues
TTITLE7=hoaß wia insre tram
TTITLE8=wann i di nit hätt
TTITLE9=oooh manuela
TTITLE10=schaust nachand gach amoi vabei
TTITLE11=wenga hansn schane
TTITLE12=summaregn
TTITLE13=auf da roas
TTITLE14=vögln aufn dach
TTITLE15=irgendwann is ois amaoi gar
TTITLE16=vorbei
EXTD=YEAR: 2003
EXTT0=
EXTT1=
EXTT2=
EXTT3=
EXTT4=
EXTT5=
EXTT6=
EXTT7=
EXTT8=
EXTT9=
EXTT10=
EXTT11=
EXTT12=
EXTT13=
EXTT14=
EXTT15=
EXTT16=
PLAYORDER=
